<svg width="1267" height="1201" viewBox="0 0 1267 1201" fill="none" xmlns="http://www.w3.org/2000/svg">
<path d="M502.745 170.821L502.745 170.821C613.213 144.609 730.462 143.543 839.66 189.358C960.308 240.005 1077.97 317.328 1121.31 430.196C1164.85 543.587 1114.15 656.77 1058.53 759.02C1002.39 862.197 932.573 963.263 812.045 998.551C749.39 1016.89 694.067 1004.28 639.62 977.91C603.35 960.343 567.666 936.783 530.517 912.256C511.737 899.856 492.581 887.209 472.786 874.963C417.858 840.987 384.123 809.077 359.737 771.458C335.318 733.788 320.194 690.282 302.66 632.903L300.718 633.496L302.66 632.903C270.285 527.002 244.518 431.949 296.373 340.533C322.344 294.756 346.374 258.905 377.657 231.209C408.897 203.549 447.492 183.92 502.745 170.821Z" stroke="#D1555D" stroke-width="4"/>
<path d="M461.422 1006.51C565.988 1072.75 703.337 1082.35 822.208 1039.35C936.17 998.122 1006.34 893.76 1063.66 788.662C1120.41 684.582 1173.72 569.089 1139.27 457.926C1105.01 347.409 999.912 276.309 891.115 232.003C792.287 191.781 683.556 198.683 579.903 230.208C476 261.786 373.299 312.06 320.436 405.488C267.229 499.538 282.6 609.521 306.835 712.8C333.115 824.843 363.299 944.355 461.422 1006.51Z" fill="url(#paint0_linear)"/>
<path d="M762.794 264.325C885.807 315.394 1005.16 394.736 1047.26 513.222C1089.57 632.309 1034.84 753.135 975.323 862.437C915.258 972.733 841.128 1081.13 716.254 1120.96C652.007 1141.44 601.181 1103.06 550.987 1049.12C538.476 1035.68 526.051 1021.32 513.501 1006.74C512.493 1005.57 511.485 1004.4 510.476 1003.23C498.921 989.799 487.247 976.233 475.321 963.107C449.396 934.574 422.177 908.002 392.13 889.251C352.195 864.331 320.2 853.857 294.427 845.419C283.997 842.004 274.585 838.923 266.079 835.353C251.289 829.147 239.044 821.437 228.403 807.917C217.754 794.386 208.616 774.913 200.283 745.014C200.346 691.81 192.641 648.705 185.845 610.68C183.507 597.605 181.278 585.131 179.508 573.053C172.582 525.78 172.618 484.321 200.265 435.531C228.011 386.573 253.551 348.132 286.385 318.168C319.177 288.242 359.354 266.677 416.51 251.681L416.51 251.681C530.784 221.673 651.458 218.131 762.794 264.325Z" stroke="#033AFD" stroke-width="4"/>
<defs>
<linearGradient id="paint0_linear" x1="895.255" y1="230.838" x2="487.587" y2="1021.57" gradientUnits="userSpaceOnUse">
<stop stop-color="#393F45"/>
<stop offset="0.322917" stop-color="#454A50" stop-opacity="0.970937"/>
<stop offset="1" stop-color="#606366" stop-opacity="0.91"/>
</linearGradient>
</defs>
</svg>
